<svg xmlns="http://www.w3.org/2000/svg" viewBox="0 0 743.96 113.39">
    <defs>
        <style>.cls-1{fill:#3273dc;}.cls-2{fill:#b61f29;}</style>
    </defs>
    <path class="cls-1" d="M526.33,88.64h7.48V66.45H534c1.57,4.78,5.13,6.86,13,6.86h14.26c15.39,0,21.73-5,21.73-19.94V45.25c0-15.88-9.91-19.4-20.52-19.4H548.32c-6.61,0-12.69,2.44-14.86,8h-.17V26.57h-7Zm49.2-34.28C575.53,65,570.32,67,561.62,67h-13.3c-7.91,0-14.52-1.8-14.52-12.81V45.43c0-7.94,3.74-13.26,13.56-13.26h14.86c10.52,0,13.3,4.24,13.3,13.17ZM505.9,72.59h7.48V7.27H505.9ZM437.23,54.45c0,17,11.13,18.86,20.86,18.86h13.56c13.91,0,22.34-3.16,22.34-13.71v-.9h-7.48c-.43,7-4.26,8.3-13.65,8.3H462.61c-13,0-17.91-2.71-17.91-13.17v-2.9H494V45.79c0-16.42-9.65-19.94-23-19.94H459c-10.61,0-21.73,1.89-21.73,18.59Zm49.29-9.83H444.71c.7-10.47,3.48-12.45,15.3-12.45h11c12.17,0,15.56,4.69,15.56,9.38Zm-132.22,28h8.52v-30h56.85v30h8.52V7.27h-8.52V35.33H362.82V7.27H354.3Z"/>
    <polygon class="cls-1" points="148.71 72.66 162.87 72.66 162.87 44.92 170.11 44.92 205.63 72.66 225.91 72.66 183.3 39.28 225.07 7.34 202.67 7.34 170.63 32.67 162.87 32.67 162.87 7.34 148.71 7.34 148.71 72.66"/>
    <path class="cls-1" d="M293.83,88.89c15.09.32,20.55-.86,25.15-10.34l26-51.88H331.76L315.28,61.5,298.69,26.68H285.12l21.33,44.15,2.16,4.53c-2.26,4.1-3.31,4.37-14.78,4.37Z"/>
    <path class="cls-1" d="M239.07,45c0-8.75,1.71-10.33,16-10.33,12.77,0,16,1.58,16,10.33ZM239,55.18V52.29h44.15V45.81c0-16.42-9.65-19.94-23-19.94h-12c-10.61,0-21.73,1.9-21.73,18.58v10c0,17,11.13,18.86,20.86,18.86h13.56c13.91,0,22.34-2.9,22.34-15v-.9H271.26c0,6.87-3.73,7.62-13.12,7.62H253c-13,0-14-3.12-14-9.85"/>
    <path class="cls-2" d="M78.2,90.72A13.6,13.6,0,1,1,91.62,76.94v.18A13.51,13.51,0,0,1,78.2,90.72h0m24.93-13.6c0-3.9,2.37-7,5.94-9.09a32.46,32.46,0,0,0-2.54-6.23c-4,1.06-7.24-.53-10-3.29S93,52.51,94,48.42a31.81,31.81,0,0,0-6.14-2.58,11.62,11.62,0,0,1-9.71,6,11.62,11.62,0,0,1-9.71-6,32.44,32.44,0,0,0-6.14,2.58c1,4,.21,7.34-2.51,10.1s-6,4.35-10,3.29A32,32,0,0,0,47.34,68c3.57,2.12,5.94,5.19,5.94,9.09A11.81,11.81,0,0,1,47.34,87a32.46,32.46,0,0,0,2.54,6.23,9.6,9.6,0,0,1,10,2.54c2.76,2.76,3.55,6,2.51,10.09a31.81,31.81,0,0,0,6.14,2.58,11.62,11.62,0,0,1,9.71-6,11.62,11.62,0,0,1,9.71,6,31.81,31.81,0,0,0,6.14-2.58c-1-4-.21-7.34,2.51-10.09s6-4.35,10-3.29a32.46,32.46,0,0,0,2.54-6.23c-3.57-2.12-5.94-5.19-5.94-9.1"/>
    <path class="cls-1" d="M29.36,94.63c-16.14,0-16.42-16.35-16.42-17V11H77.15C93.3,11,93.57,27.31,93.57,28v8h4.94V28c0-7.67-4.46-22.17-21.36-22.17H8V77.59c0,7.67,4.46,22.17,21.36,22.17h8.42V94.63Z"/>
    <path class="cls-1" d="M588,12.9V10.09h2c.93,0,2,.21,2,1.35,0,1.3-.92,1.46-2,1.46Zm-1.59,5.42H588v-4.1h1.39l2.4,4.1h1.81L591,14.15c1.48-.16,2.55-.84,2.55-2.57,0-2-1.25-2.8-3.6-2.8h-3.53Zm-3.6-4.76a6.84,6.84,0,1,1,6.85,6.83h0a6.83,6.83,0,0,1-6.83-6.83h0m-1.6,0a8.43,8.43,0,1,0,8.43-8.43h0a8.45,8.45,0,0,0-8.43,8.43"/>
    <path class="cls-1" d="M593.48,26.32H578.65c10,.5,19.27,3.6,19.27,18.39V54.94c0,16.6-12.29,18.48-19.2,18.48h-.07v.06h14.83a18,18,0,0,0,18-18V44.33a18,18,0,0,0-18-18m18.27,0H596.92c10,.5,19.27,3.6,19.27,18.39V54.94c0,16.6-12.29,18.48-19.2,18.48h-.07v.06h14.83a18,18,0,0,0,18-18V44.33a18,18,0,0,0-18-18m59.63,17.14c0-3.89-1.14-4.86-5.74-4.86H650.09v9.76h15c5.18,0,6.32-.9,6.32-4.9m46,13.32c.68-.9,1-2.52,1-5,0-3-.4-4.58-1.33-5.48s-2.77-1.22-7-1.22c-4.7,0-6.43.36-7.36,1.51-.72.9-1,2.52-1,5.08,0,2.88.39,4.53,1.33,5.4s2.76,1.22,7,1.22c4.63,0,6.35-.36,7.29-1.51m3.73-5c0,3.57-.65,5.65-2.08,7s-3.77,1.69-9,1.69-7.51-.43-8.94-1.69-2-3.36-2-7.07.62-5.76,2.09-7.06,3.77-1.69,8.94-1.69,7.54.43,9,1.69,2.08,3.39,2.08,7.2m-25.24-1.33h-2.55v-.9c0-3.67-1.05-4.5-5.71-4.5-5.1,0-7,1.4-7,5.11v10H678v-17h2.55v3.35c.93-2.88,2.48-3.6,7.72-3.6,5.89,0,7.58,1.48,7.58,6.55Zm-21.51-7.2c0,3.53-.47,5-1.91,6.16-1.18.93-2.69,1.33-5.28,1.33H650.09V60.2h-2.87v-24h19.32c3.77,0,5.24.36,6.39,1.58s1.44,2.63,1.44,5.51m63.82,12.2V44.33a18,18,0,0,0-18-18H615.34c10,.5,19.27,3.6,19.27,18.39V54.94c0,16.6-12.29,18.48-19.2,18.48h-.07v.06H720.19a18,18,0,0,0,18-18"/>
</svg>