<svg xmlns="http://www.w3.org/2000/svg" viewBox="0 0 260 260">
    <defs>
        <style>.cls-1{fill:#b61f29;}.cls-2{fill:#3273dc;}</style>
    </defs>
    <path class="cls-1" d="M240.5,180c0-9.8,6-17.6,15-23a83,83,0,0,0-6.4-15.7C239,144,230.8,140,224,133s-9-15.3-6.3-25.5a77.76,77.76,0,0,0-15.5-6.5c-5.3,9.1-14.8,15.2-24.5,15.2s-19.2-6.1-24.5-15.2a77.76,77.76,0,0,0-15.5,6.5c2.6,10.2.5,18.5-6.3,25.5s-15.1,11-25.2,8.3A86.35,86.35,0,0,0,99.8,157c9,5.3,15,13.1,15,23s-6,19.5-15,24.8a83,83,0,0,0,6.4,15.7c10.1-2.7,18.3-.5,25.2,6.4s9,15.3,6.3,25.5a77.76,77.76,0,0,0,15.5,6.5c5.3-9.1,14.8-15.2,24.5-15.2s19.2,6.1,24.5,15.2a77.76,77.76,0,0,0,15.5-6.5c-2.6-10.2-.5-18.5,6.3-25.5s15.1-11,25.2-8.3a86.35,86.35,0,0,0,6.4-15.7C246.5,197.6,240.5,189.9,240.5,180Zm-62.9,34.4c-18.7,0-33.9-15.4-33.9-34.4s15.2-34.4,33.9-34.4S211.5,161,211.5,180,196.3,214.4,177.6,214.4Z"/>
    <path class="cls-2" d="M54.2,224.3c-40.8,0-41.5-41.3-41.5-43V12.9H174.9c40.8,0,41.5,41.3,41.5,43V76h12.5V56c0-19.4-11.3-56-53.9-56H.3V181.2c0,19.4,11.3,56,53.9,56H75.5V224.3Z"/>
</svg>