<svg xmlns="http://www.w3.org/2000/svg" viewBox="0 0 594.98 120.04">
    <defs>
        <style>.cls-1{fill:#3273dc;}.cls-2{fill:#b61f29;}</style>
    </defs>
    <polygon class="cls-1" points="203.88 2.17 170.73 27.42 162.71 27.42 162.71 2.17 148.05 2.17 148.05 67.29 162.71 67.29 162.71 39.63 170.19 39.63 206.94 67.29 227.94 67.29 183.84 34.01 227.06 2.17 203.88 2.17"/>
    <path class="cls-1" d="M298.21,83.47c15.61.32,21.26-.86,26-10.31l26.9-51.72H337.46l-17,34.72L303.24,21.44h-14l22.07,44L313.5,70c-2.33,4.09-3.42,4.36-15.29,4.36Z"/>
    <path class="cls-1" d="M241.55,39.68c0-8.72,1.77-10.3,16.51-10.3,13.22,0,16.52,1.58,16.52,10.3Zm-.12,10.18V47h45.69V40.52c0-16.37-10-19.88-23.84-19.88H250.87c-11,0-22.49,1.89-22.49,18.53v10C228.38,66.07,239.89,68,250,68h14c14.39,0,23.12-2.89,23.12-15v-.9H274.85c0,6.85-3.86,7.59-13.57,7.59H256c-13.49,0-14.54-3.08-14.54-9.79"/>
    <path class="cls-1" d="M535.75,49.54c0,16.64,12.32,18.53,19.25,18.53h17.45c14.39,0,20.14-4.5,20.14-16.1V50.62H585.4v1.53c0,7.47-6,9.62-13.22,9.62h-13c-9.35,0-15.65-2.34-15.65-12.59V39.56c0-11.43,6.84-12.51,14.12-12.51h14.22c7.73,0,12.77,1.8,12.77,9.45v1.08h7.2V36.32c0-9.72-5.67-15.56-20.06-15.56h-13c-11.33,0-23,1.89-23,18.53Zm-66.2,4.77c0,13.76,10.7,13.76,22.12,13.76h14.21c9.45,0,21.32-.45,21.32-13.31v-.18c0-12.42-7.91-13.58-19.52-13.58H487.27c-8.1,0-9.36-2.16-9.36-5.94V33.35c0-5.22,2.43-6.3,13.49-6.3h13.5c8.45,0,13.13.18,13.13,7.2v.45h7.19V32.27c0-6.47-2.42-11.51-19.87-11.51H493.47c-19.07,0-23.29,4.14-23.29,11.6v2.7c0,8.72,4,12.23,14.93,12.23h23.83c9.27,0,10.53,2.43,10.53,6.84v.36c0,6.83-3.69,7.28-15.29,7.28H487.63c-7.92,0-10.89-2.34-10.89-8V51.52h-7.19ZM451,10.68h7.73V2.23H451Zm0,56.67h7.73V21.48H451Zm-93.46,0h52.35C432,67.35,438,58.72,438,34.79,438,9.07,432,2.23,410.18,2.23H357.56Zm71.6-29c0,19.52-7.37,21.86-18.08,21.86h-44.7V9.42h46.14c10.8,0,16.64,3.42,16.64,22.22Z"/>
    <path class="cls-2" d="M104.63,82.55a7.1,7.1,0,0,1,4,1.23L100.73,46a5.25,5.25,0,0,0-4.93-4H59.69a5.25,5.25,0,0,0-4.92,4L46.84,83.78a7.13,7.13,0,0,1,4-1.23Z"/>
    <path class="cls-2" d="M101.19,92.57H90.86a1.23,1.23,0,1,1,0-2.45h10.33a1.23,1.23,0,0,1,0,2.45m-50.33,8.87h53.77a4.75,4.75,0,0,0,4.75-4.74v-7A4.76,4.76,0,0,0,104.63,85H50.86a4.75,4.75,0,0,0-4,2.21,4.69,4.69,0,0,0-.74,2.53v7a4.74,4.74,0,0,0,4.74,4.74"/>
    <path class="cls-1" d="M25.42,89C8.8,89,8.51,72.75,8.51,72.07V6H74.64C91.26,6,91.55,22.18,91.55,22.87v7.91h5.09V22.87c0-7.61-4.6-22-22-22H3.42v71.2c0,7.61,4.6,22,22,22h8.67V89Z"/>
    <path class="cls-1" d="M591.72,107.86a12.47,12.47,0,0,1-.33,3.1,4.63,4.63,0,0,1-1,2.05,4.07,4.07,0,0,1-1.87,1.13,10.08,10.08,0,0,1-2.85.35h-10a9.89,9.89,0,0,1-3.06-.41,4.57,4.57,0,0,1-2-1.26,5,5,0,0,1-1-2.1,12.23,12.23,0,0,1-.31-3v-4.92a12.23,12.23,0,0,1,.31-3,5,5,0,0,1,1-2.1,4.57,4.57,0,0,1,2-1.26,9.92,9.92,0,0,1,3.06-.4h9.19a16.19,16.19,0,0,1,2.41.18,6.11,6.11,0,0,1,2.13.73,4.36,4.36,0,0,1,1.54,1.51,4.64,4.64,0,0,1,.6,2.51v.65h-2.29a6.56,6.56,0,0,0-.24-2,1.84,1.84,0,0,0-1-1.08,6.1,6.1,0,0,0-2.14-.44c-.91-.06-2.13-.09-3.63-.09h-6.31a7.87,7.87,0,0,0-1.64.16,3.46,3.46,0,0,0-1.34.58A3,3,0,0,0,572,100a4.6,4.6,0,0,0-.34,1.91v6.76a4.6,4.6,0,0,0,.34,1.91,2.86,2.86,0,0,0,.9,1.16,3.33,3.33,0,0,0,1.34.59,7.87,7.87,0,0,0,1.64.16h9.51a5,5,0,0,0,2.88-.73,3,3,0,0,0,1-2.6v-1.81h-9.21v-2h11.65Zm-37-9.56-6,10.2h12.07Zm-1.52-2h3l10.68,18h-2.76l-2.24-3.8H547.53l-2.24,3.8h-2.75Zm-40.64,0h2.14v7h0a2.4,2.4,0,0,1,1.28-1.44,6.76,6.76,0,0,1,2.76-.44h3.26a15.11,15.11,0,0,1,3.21.28,4.75,4.75,0,0,1,2.06,1,3.52,3.52,0,0,1,1.11,1.7,8.85,8.85,0,0,1,.32,2.55v2.24a6.46,6.46,0,0,1-.48,2.68,4,4,0,0,1-1.36,1.63,5.61,5.61,0,0,1-2.08.8,14.64,14.64,0,0,1-2.66.23h-3a7.29,7.29,0,0,1-2.9-.53,3,3,0,0,1-1.69-1.68h-.05v2h-2Zm14,10.33a4.84,4.84,0,0,0-.27-1.77,2.26,2.26,0,0,0-.82-1.06,3.31,3.31,0,0,0-1.38-.51,12,12,0,0,0-1.92-.14h-2.88a14,14,0,0,0-2,.13,3.82,3.82,0,0,0-1.45.49,2.48,2.48,0,0,0-.92,1.07,4.37,4.37,0,0,0-.32,1.84v2.41a5.28,5.28,0,0,0,.21,1.55,2.6,2.6,0,0,0,.69,1.14,3.3,3.3,0,0,0,1.3.71,7,7,0,0,0,2,.25h3.48a8.25,8.25,0,0,0,2.12-.23,2.91,2.91,0,0,0,1.3-.67,2.24,2.24,0,0,0,.65-1.13,6.28,6.28,0,0,0,.17-1.6Zm-33.61-.1a5.73,5.73,0,0,1,.55-2.73,4,4,0,0,1,1.42-1.55,5.06,5.06,0,0,1,2-.68,16.67,16.67,0,0,1,2.25-.15h3.42a14.57,14.57,0,0,1,2.65.22,5.33,5.33,0,0,1,2.07.83,4.24,4.24,0,0,1,1.37,1.68,6.57,6.57,0,0,1,.49,2.75v1.42H495.14v.79a5,5,0,0,0,.28,1.79,2.27,2.27,0,0,0,.88,1.1,3.91,3.91,0,0,0,1.59.58,15.76,15.76,0,0,0,2.37.16h2.93a14,14,0,0,0,1.71-.09,3.59,3.59,0,0,0,1.19-.33,1.66,1.66,0,0,0,.71-.7,3,3,0,0,0,.29-1.17h2.13v.25a3.44,3.44,0,0,1-.43,1.81,3.12,3.12,0,0,1-1.27,1.16,6.61,6.61,0,0,1-2,.62,17.81,17.81,0,0,1-2.67.19H499a15.08,15.08,0,0,1-2.11-.15,4.86,4.86,0,0,1-1.93-.7,4,4,0,0,1-1.39-1.56,6.14,6.14,0,0,1-.53-2.78Zm14.08-.79a2.2,2.2,0,0,0-.22-1,2.1,2.1,0,0,0-.7-.83,4.09,4.09,0,0,0-1.37-.58,8.76,8.76,0,0,0-2.16-.23h-3.13a13.14,13.14,0,0,0-2.08.14,2.9,2.9,0,0,0-1.31.51,2.08,2.08,0,0,0-.69,1,8.46,8.46,0,0,0-.29,1.74h11.95Zm-41.21-4.13h2.26l4.94,10.93,4-10.93h3.07l4,10.93,4.94-10.93h2.26l-5.76,12.67h-3l-4-10.93-4.05,10.93h-2.95Zm-14,15.65c.81,0,1.48,0,2-.08a3.6,3.6,0,0,0,1.34-.36,2.63,2.63,0,0,0,.93-.83,8.45,8.45,0,0,0,.81-1.51h-.52l-7.18-12.87h2.41l6.13,11.2,5.52-11.2h2.3l-7.15,14.23a10.53,10.53,0,0,1-1,1.58,3.42,3.42,0,0,1-1.18.95,5.49,5.49,0,0,1-1.77.47,23.56,23.56,0,0,1-2.69.15Zm-20.26-10.73a5.73,5.73,0,0,1,.55-2.73,4,4,0,0,1,1.42-1.55,5.11,5.11,0,0,1,2-.68,16.78,16.78,0,0,1,2.25-.15h3.42a14.49,14.49,0,0,1,2.65.22,5.33,5.33,0,0,1,2.07.83,4.24,4.24,0,0,1,1.37,1.68,6.57,6.57,0,0,1,.49,2.75v1.42H433.73v.79a5,5,0,0,0,.27,1.79,2.33,2.33,0,0,0,.88,1.1,4,4,0,0,0,1.59.58,15.76,15.76,0,0,0,2.37.16h2.93a14,14,0,0,0,1.71-.09,3.59,3.59,0,0,0,1.19-.33,1.6,1.6,0,0,0,.71-.7,2.87,2.87,0,0,0,.29-1.17h2.13v.25a3.44,3.44,0,0,1-.43,1.81,3.12,3.12,0,0,1-1.27,1.16,6.61,6.61,0,0,1-2,.62,17.61,17.61,0,0,1-2.67.19h-3.87a15.19,15.19,0,0,1-2.11-.15,4.82,4.82,0,0,1-1.92-.7,3.85,3.85,0,0,1-1.39-1.56,6,6,0,0,1-.54-2.78Zm14.08-.79a2.33,2.33,0,0,0-.21-1,2.13,2.13,0,0,0-.71-.83,4.09,4.09,0,0,0-1.37-.58,8.7,8.7,0,0,0-2.16-.23H438.1a13.19,13.19,0,0,0-2.09.14,2.82,2.82,0,0,0-1.3.51,2.1,2.1,0,0,0-.7,1,7.89,7.89,0,0,0-.28,1.74h11.94ZM408,96.31h2.44v7.62h3l11.27-7.62h4l.05,0L415.93,105,430,114.24l-.05.05h-4.27l-12.34-8.37h-2.85v8.37H408Zm-28.2,21c.81,0,1.48,0,2-.08a3.6,3.6,0,0,0,1.34-.36,2.54,2.54,0,0,0,.93-.83,8.45,8.45,0,0,0,.81-1.51h-.52l-7.17-12.87h2.4l6.14,11.2,5.5-11.2h2.31l-7.15,14.23a10.53,10.53,0,0,1-1,1.58,3.42,3.42,0,0,1-1.18.95,5.42,5.42,0,0,1-1.77.47,23.56,23.56,0,0,1-2.69.15Zm-20.33-21h2.14v7h0a2.43,2.43,0,0,1,1.28-1.44,6.82,6.82,0,0,1,2.77-.44H369a15.21,15.21,0,0,1,3.22.28,4.75,4.75,0,0,1,2.06,1,3.43,3.43,0,0,1,1.1,1.7,8.49,8.49,0,0,1,.33,2.55v2.24a6.45,6.45,0,0,1-.49,2.68,3.88,3.88,0,0,1-1.35,1.63,5.67,5.67,0,0,1-2.09.8,14.53,14.53,0,0,1-2.65.23h-3a7.31,7.31,0,0,1-2.91-.53,3,3,0,0,1-1.69-1.68h0v2h-2Zm14.05,10.33a4.84,4.84,0,0,0-.27-1.77,2.26,2.26,0,0,0-.82-1.06,3.42,3.42,0,0,0-1.38-.51,12.07,12.07,0,0,0-1.92-.14h-2.88a14,14,0,0,0-1.95.13,3.76,3.76,0,0,0-1.45.49,2.41,2.41,0,0,0-.92,1.07,4.37,4.37,0,0,0-.32,1.84v2.41a5,5,0,0,0,.21,1.55,2.6,2.6,0,0,0,.69,1.14,3.19,3.19,0,0,0,1.29.71,7.12,7.12,0,0,0,2,.25h3.48a8.3,8.3,0,0,0,2.12-.23,3,3,0,0,0,1.3-.67,2.24,2.24,0,0,0,.65-1.13,6.76,6.76,0,0,0,.17-1.6Z"/>
</svg>